<?xml version="1.0" standalone="no"?>
<!DOCTYPE svg PUBLIC "-//W3C//DTD SVG 20010904//EN"
 "http://www.w3.org/TR/2001/REC-SVG-20010904/DTD/svg10.dtd">
<svg version="1.0" xmlns="http://www.w3.org/2000/svg"
 width="1280.000000pt" height="1236.000000pt" viewBox="0 0 1280.000000 1236.000000"
 preserveAspectRatio="xMidYMid meet">
<g transform="translate(0.000000,1236.000000) scale(0.100000,-0.100000)"
fill="#fff" stroke="none">
<path d="M5381 12300 c7 -14 60 -92 119 -175 143 -200 188 -271 248 -392 342
-682 226 -1515 -378 -2723 -361 -721 -794 -1429 -1955 -3195 -192 -291 -380
-579 -418 -640 -91 -143 -233 -420 -290 -565 -477 -1216 34 -2344 1509 -3332
495 -332 1085 -640 1755 -916 290 -120 766 -298 774 -291 2 2 -56 41 -129 86
-178 111 -417 281 -573 410 -168 138 -485 459 -596 602 -450 582 -607 1150
-486 1754 30 152 142 486 268 802 195 488 523 1161 971 1995 380 706 535 1005
657 1262 245 521 380 885 474 1283 32 133 33 149 33 330 0 205 -10 280 -65
493 -197 765 -849 1912 -1676 2948 -120 151 -262 305 -242 264z"/>
<path d="M8183 8109 c99 -226 67 -555 -104 -1057 -167 -488 -399 -989 -1028
-2222 -608 -1192 -798 -1620 -855 -1925 -86 -464 67 -1003 418 -1475 73 -97
205 -244 213 -236 3 3 -23 38 -57 78 -114 136 -156 270 -146 468 16 317 151
712 431 1265 146 289 272 513 533 950 118 198 250 419 292 490 379 642 613
1168 785 1765 69 242 88 353 88 515 1 297 -67 479 -418 1130 -156 289 -199
361 -152 254z"/>
<path d="M9605 6607 c195 -544 63 -1454 -330 -2282 -120 -253 -285 -522 -701
-1140 -548 -817 -766 -1190 -893 -1537 -112 -304 -149 -629 -114 -998 l6 -65
22 65 c48 140 122 255 291 450 129 149 472 484 784 765 709 641 1058 1049
1306 1530 165 318 253 600 301 960 21 161 24 637 4 790 -37 295 -98 498 -221
740 -70 137 -448 774 -481 809 -5 5 7 -34 26 -87z"/>
</g>
</svg>
